{"scene":0,"asset":{"generator":"ImageToStl.com","version":"2.0"},"scenes":[{"name":"Scene","nodes":[0]}],"nodes":[{"name":"Node0","children":[1,2,3,4,5,6,7,8,9,10,11,12,13,14,15,16,17,18,19,20,21,22,23,24,25,26,27]},{"name":"Node1","mesh":0},{"name":"Node2","mesh":1},{"name":"Node3","mesh":2},{"name":"Node4","mesh":3},{"name":"Node5","mesh":4},{"name":"Node6","mesh":5},{"name":"Node7","mesh":6},{"name":"Node8","mesh":7},{"name":"Node9","mesh":8},{"name":"Node10","mesh":9},{"name":"Node11","mesh":10},{"name":"Node12","mesh":11},{"name":"Node13","mesh":12},{"name":"Node14","mesh":13},{"name":"Node15","mesh":14},{"name":"Node16","mesh":15},{"name":"Node17","mesh":16},{"name":"Node18","mesh":17},{"name":"Node19","mesh":18},{"name":"Node20","mesh":19},{"name":"Node21","mesh":20},{"name":"Node22","mesh":21},{"name":"Node23","mesh":22},{"name":"Node24","mesh":23},{"name":"Node25","mesh":24},{"name":"Node26","mesh":25},{"name":"Node27","mesh":26}],"materials":[{"name":"Wood","pbrMetallicRoughness":{"baseColorFactor":[0.559512,0.410411,0.238675,1.0],"metallicFactor":0.5,"roughnessFactor":0.75},"emissiveFactor":[0.0,0.0,0.0],"doubleSided":true},{"name":"CushionBrown","pbrMetallicRoughness":{"baseColorFactor":[0.128197,0.086632,0.073412,1.0],"metallicFactor":0.1,"roughnessFactor":0.75},"emissiveFactor":[0.0,0.0,0.0],"doubleSided":true},{"name":"TatamiGreen","pbrMetallicRoughness":{"baseColorFactor":[0.339844,0.366253,0.234941,1.0],"metallicFactor":0.5,"roughnessFactor":0.75},"emissiveFactor":[0.0,0.0,0.0],"doubleSided":true},{"name":"CupInnerRed","pbrMetallicRoughness":{"baseColorFactor":[0.204813,0.032751,0.030853,1.0],"metallicFactor":0.5,"roughnessFactor":0.75},"emissiveFactor":[0.0,0.0,0.0],"doubleSided":true},{"name":"CupOuterPurple","pbrMetallicRoughness":{"baseColorFactor":[0.410867,0.299631,0.299631,1.0],"metallicFactor":0.2,"roughnessFactor":0.75},"emissiveFactor":[0.0,0.0,0.0],"doubleSided":true},{"name":"CupOuterBeige","pbrMetallicRoughness":{"baseColorFactor":[0.04825,0.013484,0.00429,1.0],"metallicFactor":0.2,"roughnessFactor":0.75},"emissiveFactor":[0.0,0.0,0.0],"doubleSided":true},{"name":"CupOuterPink","pbrMetallicRoughness":{"baseColorFactor":[0.026296,0.008858,0.019239,1.0],"metallicFactor":0.2,"roughnessFactor":0.75},"emissiveFactor":[0.0,0.0,0.0],"doubleSided":true},{"name":"CupInnerPurple","pbrMetallicRoughness":{"baseColorFactor":[0.003791,0.003888,0.009514,1.0],"metallicFactor":0.5,"roughnessFactor":0.75},"emissiveFactor":[0.0,0.0,0.0],"doubleSided":true},{"name":"CupOuterGold","pbrMetallicRoughness":{"baseColorFactor":[0.27301,0.31072,0.288042,1.0],"metallicFactor":1.0,"roughnessFactor":0.75},"emissiveFactor":[0.0,0.0,0.0],"doubleSided":true},{"name":"TeaPotWhite","pbrMetallicRoughness":{"baseColorFactor":[0.661741,0.661741,0.661741,1.0],"metallicFactor":0.0,"roughnessFactor":0.75},"emissiveFactor":[0.0,0.0,0.0],"doubleSided":true},{"name":"ShelfTopDark","pbrMetallicRoughness":{"baseColorFactor":[0.028151,0.026136,0.044431,1.0],"metallicFactor":0.5,"roughnessFactor":0.75},"emissiveFactor":[0.0,0.0,0.0],"doubleSided":true},{"name":"Lamp","pbrMetallicRoughness":{"baseColorFactor":[0.8,0.731728,0.574352,1.0],"metallicFactor":0.0,"roughnessFactor":0.75},"emissiveFactor":[0.0,0.0,0.0],"doubleSided":true},{"name":"Black","pbrMetallicRoughness":{"baseColorFactor":[0.025019,0.021787,0.033105,1.0],"metallicFactor":0.05,"roughnessFactor":0.75},"emissiveFactor":[0.0,0.0,0.0],"doubleSided":true},{"name":"TableVaseGray","pbrMetallicRoughness":{"baseColorFactor":[0.667693,0.631339,0.553287,1.0],"metallicFactor":0.1,"roughnessFactor":0.75},"emissiveFactor":[0.0,0.0,0.0],"doubleSided":true},{"name":"DarkerWood","pbrMetallicRoughness":{"baseColorFactor":[0.229692,0.165351,0.097872,1.0],"metallicFactor":0.5,"roughnessFactor":0.75},"emissiveFactor":[0.0,0.0,0.0],"doubleSided":true},{"name":"WoodDark","pbrMetallicRoughness":{"baseColorFactor":[0.37136,0.273594,0.160568,1.0],"metallicFactor":0.5,"roughnessFactor":0.75},"emissiveFactor":[0.0,0.0,0.0],"doubleSided":true},{"name":"WindowWhite","pbrMetallicRoughness":{"baseColorFactor":[0.786167,0.8,0.578276,1.0],"metallicFactor":0.5,"roughnessFactor":0.75},"emissiveFactor":[0.0,0.0,0.0],"doubleSided":true},{"name":"WallLight","pbrMetallicRoughness":{"baseColorFactor":[0.8,0.648392,0.470028,1.0],"metallicFactor":0.0,"roughnessFactor":0.75},"emissiveFactor":[0.0,0.0,0.0],"doubleSided":true},{"name":"FloorWhite","pbrMetallicRoughness":{"baseColorFactor":[0.63231,0.583203,0.449553,1.0],"metallicFactor":0.5,"roughnessFactor":0.75},"emissiveFactor":[0.0,0.0,0.0],"doubleSided":true}],"meshes":[{"name":"Mesh0","primitives":[{"indices":2,"material":0,"attributes":{"POSITION":0,"NORMAL":1}}]},{"name":"Mesh0","primitives":[{"indices":5,"material":1,"attributes":{"POSITION":3,"NORMAL":4}}]},{"name":"Mesh0","primitives":[{"indices":8,"material":2,"attributes":{"POSITION":6,"NORMAL":7}}]},{"name":"Mesh0","primitives":[{"indices":11,"material":3,"attributes":{"POSITION":9,"NORMAL":10}},{"indices":12,"material":4,"attributes":{"POSITION":9,"NORMAL":10}}]},{"name":"Mesh0","primitives":[{"indices":15,"material":3,"attributes":{"POSITION":13,"NORMAL":14}},{"indices":16,"material":5,"attributes":{"POSITION":13,"NORMAL":14}},{"indices":17,"material":6,"attributes":{"POSITION":13,"NORMAL":14}}]},{"name":"Mesh0","primitives":[{"indices":20,"material":7,"attributes":{"POSITION":18,"NORMAL":19}},{"indices":21,"material":8,"attributes":{"POSITION":18,"NORMAL":19}}]},{"name":"Mesh0","primitives":[{"indices":24,"material":9,"attributes":{"POSITION":22,"NORMAL":23}}]},{"name":"Mesh0","primitives":[{"indices":27,"material":0,"attributes":{"POSITION":25,"NORMAL":26}},{"indices":28,"material":2,"attributes":{"POSITION":25,"NORMAL":26}}]},{"name":"Mesh0","primitives":[{"indices":31,"material":2,"attributes":{"POSITION":29,"NORMAL":30}},{"indices":32,"material":10,"attributes":{"POSITION":29,"NORMAL":30}}]},{"name":"Mesh0","primitives":[{"indices":35,"material":11,"attributes":{"POSITION":33,"NORMAL":34}},{"indices":36,"material":12,"attributes":{"POSITION":33,"NORMAL":34}}]},{"name":"Mesh0","primitives":[{"indices":39,"material":0,"attributes":{"POSITION":37,"NORMAL":38}},{"indices":40,"material":12,"attributes":{"POSITION":37,"NORMAL":38}}]},{"name":"Mesh0","primitives":[{"indices":43,"material":0,"attributes":{"POSITION":41,"NORMAL":42}},{"indices":44,"material":12,"attributes":{"POSITION":41,"NORMAL":42}}]},{"name":"Mesh0","primitives":[{"indices":47,"material":13,"attributes":{"POSITION":45,"NORMAL":46}}]},{"name":"Mesh0","primitives":[{"indices":50,"material":12,"attributes":{"POSITION":48,"NORMAL":49}}]},{"name":"Mesh0","primitives":[{"indices":53,"material":12,"attributes":{"POSITION":51,"NORMAL":52}}]},{"name":"Mesh0","primitives":[{"indices":56,"material":12,"attributes":{"POSITION":54,"NORMAL":55}}]},{"name":"Mesh0","primitives":[{"indices":59,"material":12,"attributes":{"POSITION":57,"NORMAL":58}}]},{"name":"Mesh0","primitives":[{"indices":62,"material":14,"attributes":{"POSITION":60,"NORMAL":61}}]},{"name":"Mesh0","primitives":[{"indices":65,"material":9,"attributes":{"POSITION":63,"NORMAL":64}}]},{"name":"Mesh0","primitives":[{"indices":68,"material":9,"attributes":{"POSITION":66,"NORMAL":67}}]},{"name":"Mesh0","primitives":[{"indices":71,"material":15,"attributes":{"POSITION":69,"NORMAL":70}}]},{"name":"Mesh0","primitives":[{"indices":74,"material":15,"attributes":{"POSITION":72,"NORMAL":73}}]},{"name":"Mesh0","primitives":[{"indices":77,"material":0,"attributes":{"POSITION":75,"NORMAL":76}},{"indices":78,"material":16,"attributes":{"POSITION":75,"NORMAL":76}}]},{"name":"Mesh0","primitives":[{"indices":81,"material":0,"attributes":{"POSITION":79,"NORMAL":80}}]},{"name":"Mesh0","primitives":[{"indices":84,"material":0,"attributes":{"POSITION":82,"NORMAL":83}},{"indices":85,"material":2,"attributes":{"POSITION":82,"NORMAL":83}}]},{"name":"Mesh0","primitives":[{"indices":88,"material":2,"attributes":{"POSITION":86,"NORMAL":87}},{"indices":89,"material":17,"attributes":{"POSITION":86,"NORMAL":87}}]},{"name":"Mesh0","primitives":[{"indices":92,"material":0,"attributes":{"POSITION":90,"NORMAL":91}},{"indices":93,"material":2,"attributes":{"POSITION":90,"NORMAL":91}},{"indices":94,"material":18,"attributes":{"POSITION":90,"NORMAL":91}}]}],"accessors":[{"bufferView":0,"componentType":5126,"count":8,"type":"VEC3","min":[-3.0,-4.0,0.0],"max":[0.0,4.0,1.0]},{"bufferView":1,"componentType":5126,"count":8,"type":"VEC3"},{"bufferView":2,"componentType":5123,"count":36,"type":"SCALAR"},{"bufferView":3,"componentType":5126,"count":56,"type":"VEC3","min":[-2.8,-0.8,1.0],"max":[-1.2,0.8,1.3499999]},{"bufferView":4,"componentType":5126,"count":56,"type":"VEC3"},{"bufferView":5,"componentType":5123,"count":324,"type":"SCALAR"},{"bufferView":6,"componentType":5126,"count":8,"type":"VEC3","min":[-4.0,0.0,0.0],"max":[-3.0,4.0,8.0]},{"bufferView":7,"componentType":5126,"count":8,"type":"VEC3"},{"bufferView":8,"componentType":5123,"count":36,"type":"SCALAR"},{"bufferView":9,"componentType":5126,"count":112,"type":"VEC3","min":[-3.683993,-1.6839931,2.0],"max":[-3.316007,-1.3160069,2.1830964]},{"bufferView":10,"componentType":5126,"count":112,"type":"VEC3"},{"bufferView":11,"componentType":5123,"count":306,"type":"SCALAR"},{"bufferView":12,"componentType":5123,"count":354,"type":"SCALAR"},{"bufferView":13,"componentType":5126,"count":112,"type":"VEC3","min":[-3.7164626,-2.2164624,2.0],"max":[-3.2835376,-1.7835375,2.2746446]},{"bufferView":14,"componentType":5126,"count":112,"type":"VEC3"},{"bufferView":15,"componentType":5123,"count":306,"type":"SCALAR"},{"bufferView":16,"componentType":5123,"count":282,"type":"SCALAR"},{"bufferView":17,"componentType":5123,"count":72,"type":"SCALAR"},{"bufferView":18,"componentType":5126,"count":112,"type":"VEC3","min":[-3.6623468,-2.6623468,2.0],"max":[-3.3376532,-2.3376532,2.1961749]},{"bufferView":19,"componentType":5126,"count":112,"type":"VEC3"},{"bufferView":20,"componentType":5123,"count":324,"type":"SCALAR"},{"bufferView":21,"componentType":5123,"count":336,"type":"SCALAR"},{"bufferView":22,"componentType":5126,"count":56,"type":"VEC3","min":[-3.65,-3.65,2.0],"max":[-3.35,-3.35,2.6692317]},{"bufferView":23,"componentType":5126,"count":56,"type":"VEC3"},{"bufferView":24,"componentType":5123,"count":324,"type":"SCALAR"},{"bufferView":25,"componentType":5126,"count":12,"type":"VEC3","min":[-4.0,-4.0,3.0],"max":[-3.0,0.0,8.0]},{"bufferView":26,"componentType":5126,"count":12,"type":"VEC3"},{"bufferView":27,"componentType":5123,"count":30,"type":"SCALAR"},{"bufferView":28,"componentType":5123,"count":30,"type":"SCALAR"},{"bufferView":29,"componentType":5126,"count":12,"type":"VEC3","min":[-4.0,-4.0,0.0],"max":[-3.0,0.0,2.0]},{"bufferView":30,"componentType":5126,"count":12,"type":"VEC3"},{"bufferView":31,"componentType":5123,"count":30,"type":"SCALAR"},{"bufferView":32,"componentType":5123,"count":30,"type":"SCALAR"},{"bufferView":33,"componentType":5126,"count":72,"type":"VEC3","min":[-0.6915761,-0.5676231,4.8883758],"max":[0.29157603,0.5676231,7.5]},{"bufferView":34,"componentType":5126,"count":72,"type":"VEC3"},{"bufferView":35,"componentType":5123,"count":228,"type":"SCALAR"},{"bufferView":36,"componentType":5123,"count":192,"type":"SCALAR"},{"bufferView":37,"componentType":5126,"count":101,"type":"VEC3","min":[1.25,-1.75,0.0],"max":[2.75,-0.25,1.875]},{"bufferView":38,"componentType":5126,"count":101,"type":"VEC3"},{"bufferView":39,"componentType":5123,"count":624,"type":"SCALAR"},{"bufferView":40,"componentType":5123,"count":54,"type":"SCALAR"},{"bufferView":41,"componentType":5126,"count":101,"type":"VEC3","min":[1.25,0.25,0.0],"max":[2.75,1.75,1.875]},{"bufferView":42,"componentType":5126,"count":101,"type":"VEC3"},{"bufferView":43,"componentType":5123,"count":624,"type":"SCALAR"},{"bufferView":44,"componentType":5123,"count":54,"type":"SCALAR"},{"bufferView":45,"componentType":5126,"count":32,"type":"VEC3","min":[-1.6870629,-0.27390766,2.0],"max":[-1.2070628,0.20609234,2.96]},{"bufferView":46,"componentType":5126,"count":32,"type":"VEC3"},{"bufferView":47,"componentType":5123,"count":180,"type":"SCALAR"},{"bufferView":48,"componentType":5126,"count":32,"type":"VEC3","min":[-0.7409752,-0.09036595,2.0],"max":[0.86397666,1.514586,2.3]},{"bufferView":49,"componentType":5126,"count":32,"type":"VEC3"},{"bufferView":50,"componentType":5123,"count":180,"type":"SCALAR"},{"bufferView":51,"componentType":5126,"count":20,"type":"VEC3","min":[-0.07559222,0.5750216,2.3],"max":[0.19859362,0.8492075,2.348]},{"bufferView":52,"componentType":5126,"count":20,"type":"VEC3"},{"bufferView":53,"componentType":5123,"count":72,"type":"SCALAR"},{"bufferView":54,"componentType":5126,"count":96,"type":"VEC3","min":[-0.14192553,0.6160964,2.5397003],"max":[0.2922979,0.80813277,3.0097]},{"bufferView":55,"componentType":5126,"count":96,"type":"VEC3"},{"bufferView":56,"componentType":5123,"count":576,"type":"SCALAR"},{"bufferView":57,"componentType":5126,"count":100,"type":"VEC3","min":[-0.17481382,0.46211457,2.348809],"max":[0.3251862,0.9621146,2.7570932]},{"bufferView":58,"componentType":5126,"count":100,"type":"VEC3"},{"bufferView":59,"componentType":5123,"count":558,"type":"SCALAR"},{"bufferView":60,"componentType":5126,"count":16,"type":"VEC3","min":[-1.171401,-1.4943929,2.0],"max":[-0.2714011,-0.59439284,2.09]},{"bufferView":61,"componentType":5126,"count":16,"type":"VEC3"},{"bufferView":62,"componentType":5123,"count":84,"type":"SCALAR"},{"bufferView":63,"componentType":5126,"count":100,"type":"VEC3","min":[-0.9260141,-1.1784495,2.045],"max":[-0.6260141,-0.87844956,2.3552961]},{"bufferView":64,"componentType":5126,"count":100,"type":"VEC3"},{"bufferView":65,"componentType":5123,"count":558,"type":"SCALAR"},{"bufferView":66,"componentType":5126,"count":96,"type":"VEC3","min":[-0.833625,-1.1587166,2.1900773],"max":[-0.71840316,-0.8981825,2.5472775]},{"bufferView":67,"componentType":5126,"count":96,"type":"VEC3"},{"bufferView":68,"componentType":5123,"count":576,"type":"SCALAR"},{"bufferView":69,"componentType":5126,"count":8,"type":"VEC3","min":[-0.5,-0.5,0.0],"max":[0.5,0.5,1.8]},{"bufferView":70,"componentType":5126,"count":8,"type":"VEC3"},{"bufferView":71,"componentType":5123,"count":36,"type":"SCALAR"},{"bufferView":72,"componentType":5126,"count":8,"type":"VEC3","min":[-1.8000001,-1.8000001,1.76],"max":[1.8000001,1.8000001,2.0]},{"bufferView":73,"componentType":5126,"count":8,"type":"VEC3"},{"bufferView":74,"componentType":5123,"count":36,"type":"SCALAR"},{"bufferView":75,"componentType":5126,"count":356,"type":"VEC3","min":[-3.1000004,-4.0,1.0000001],"max":[1.9000005,-3.9,3.0000002]},{"bufferView":76,"componentType":5126,"count":356,"type":"VEC3"},{"bufferView":77,"componentType":5123,"count":1980,"type":"SCALAR"},{"bufferView":78,"componentType":5123,"count":144,"type":"SCALAR"},{"bufferView":79,"componentType":5126,"count":8,"type":"VEC3","min":[-3.0,-4.0,7.5],"max":[0.0,4.0,8.0]},{"bufferView":80,"componentType":5126,"count":8,"type":"VEC3"},{"bufferView":81,"componentType":5123,"count":36,"type":"SCALAR"},{"bufferView":82,"componentType":5126,"count":50,"type":"VEC3","min":[-4.0,-4.25,-0.24999952],"max":[4.0,-3.8999996,8.0]},{"bufferView":83,"componentType":5126,"count":50,"type":"VEC3"},{"bufferView":84,"componentType":5123,"count":114,"type":"SCALAR"},{"bufferView":85,"componentType":5123,"count":174,"type":"SCALAR"},{"bufferView":86,"componentType":5126,"count":8,"type":"VEC3","min":[-4.2500005,-4.25,-0.25],"max":[-3.9999998,4.0,8.0]},{"bufferView":87,"componentType":5126,"count":8,"type":"VEC3"},{"bufferView":88,"componentType":5123,"count":30,"type":"SCALAR"},{"bufferView":89,"componentType":5123,"count":6,"type":"SCALAR"},{"bufferView":90,"componentType":5126,"count":16,"type":"VEC3","min":[-4.0,-4.0,-0.25],"max":[4.0,4.0,0.0]},{"bufferView":91,"componentType":5126,"count":16,"type":"VEC3"},{"bufferView":92,"componentType":5123,"count":24,"type":"SCALAR"},{"bufferView":93,"componentType":5123,"count":30,"type":"SCALAR"},{"bufferView":94,"componentType":5123,"count":30,"type":"SCALAR"}],"bufferViews":[{"target":34962,"buffer":0,"byteLength":96,"byteOffset":0},{"target":34962,"buffer":0,"byteLength":96,"byteOffset":96},{"target":34963,"buffer":0,"byteLength":72,"byteOffset":192},{"target":34962,"buffer":0,"byteLength":672,"byteOffset":264},{"target":34962,"buffer":0,"byteLength":672,"byteOffset":936},{"target":34963,"buffer":0,"byteLength":648,"byteOffset":1608},{"target":34962,"buffer":0,"byteLength":96,"byteOffset":2256},{"target":34962,"buffer":0,"byteLength":96,"byteOffset":2352},{"target":34963,"buffer":0,"byteLength":72,"byteOffset":2448},{"target":34962,"buffer":0,"byteLength":1344,"byteOffset":2520},{"target":34962,"buffer":0,"byteLength":1344,"byteOffset":3864},{"target":34963,"buffer":0,"byteLength":612,"byteOffset":5208},{"target":34963,"buffer":0,"byteLength":708,"byteOffset":5820},{"target":34962,"buffer":0,"byteLength":1344,"byteOffset":6528},{"target":34962,"buffer":0,"byteLength":1344,"byteOffset":7872},{"target":34963,"buffer":0,"byteLength":612,"byteOffset":9216},{"target":34963,"buffer":0,"byteLength":564,"byteOffset":9828},{"target":34963,"buffer":0,"byteLength":144,"byteOffset":10392},{"target":34962,"buffer":0,"byteLength":1344,"byteOffset":10536},{"target":34962,"buffer":0,"byteLength":1344,"byteOffset":11880},{"target":34963,"buffer":0,"byteLength":648,"byteOffset":13224},{"target":34963,"buffer":0,"byteLength":672,"byteOffset":13872},{"target":34962,"buffer":0,"byteLength":672,"byteOffset":14544},{"target":34962,"buffer":0,"byteLength":672,"byteOffset":15216},{"target":34963,"buffer":0,"byteLength":648,"byteOffset":15888},{"target":34962,"buffer":0,"byteLength":144,"byteOffset":16536},{"target":34962,"buffer":0,"byteLength":144,"byteOffset":16680},{"target":34963,"buffer":0,"byteLength":60,"byteOffset":16824},{"target":34963,"buffer":0,"byteLength":60,"byteOffset":16884},{"target":34962,"buffer":0,"byteLength":144,"byteOffset":16944},{"target":34962,"buffer":0,"byteLength":144,"byteOffset":17088},{"target":34963,"buffer":0,"byteLength":60,"byteOffset":17232},{"target":34963,"buffer":0,"byteLength":60,"byteOffset":17292},{"target":34962,"buffer":0,"byteLength":864,"byteOffset":17352},{"target":34962,"buffer":0,"byteLength":864,"byteOffset":18216},{"target":34963,"buffer":0,"byteLength":456,"byteOffset":19080},{"target":34963,"buffer":0,"byteLength":384,"byteOffset":19536},{"target":34962,"buffer":0,"byteLength":1212,"byteOffset":19920},{"target":34962,"buffer":0,"byteLength":1212,"byteOffset":21132},{"target":34963,"buffer":0,"byteLength":1248,"byteOffset":22344},{"target":34963,"buffer":0,"byteLength":108,"byteOffset":23592},{"target":34962,"buffer":0,"byteLength":1212,"byteOffset":23700},{"target":34962,"buffer":0,"byteLength":1212,"byteOffset":24912},{"target":34963,"buffer":0,"byteLength":1248,"byteOffset":26124},{"target":34963,"buffer":0,"byteLength":108,"byteOffset":27372},{"target":34962,"buffer":0,"byteLength":384,"byteOffset":27480},{"target":34962,"buffer":0,"byteLength":384,"byteOffset":27864},{"target":34963,"buffer":0,"byteLength":360,"byteOffset":28248},{"target":34962,"buffer":0,"byteLength":384,"byteOffset":28608},{"target":34962,"buffer":0,"byteLength":384,"byteOffset":28992},{"target":34963,"buffer":0,"byteLength":360,"byteOffset":29376},{"target":34962,"buffer":0,"byteLength":240,"byteOffset":29736},{"target":34962,"buffer":0,"byteLength":240,"byteOffset":29976},{"target":34963,"buffer":0,"byteLength":144,"byteOffset":30216},{"target":34962,"buffer":0,"byteLength":1152,"byteOffset":30360},{"target":34962,"buffer":0,"byteLength":1152,"byteOffset":31512},{"target":34963,"buffer":0,"byteLength":1152,"byteOffset":32664},{"target":34962,"buffer":0,"byteLength":1200,"byteOffset":33816},{"target":34962,"buffer":0,"byteLength":1200,"byteOffset":35016},{"target":34963,"buffer":0,"byteLength":1116,"byteOffset":36216},{"target":34962,"buffer":0,"byteLength":192,"byteOffset":37332},{"target":34962,"buffer":0,"byteLength":192,"byteOffset":37524},{"target":34963,"buffer":0,"byteLength":168,"byteOffset":37716},{"target":34962,"buffer":0,"byteLength":1200,"byteOffset":37884},{"target":34962,"buffer":0,"byteLength":1200,"byteOffset":39084},{"target":34963,"buffer":0,"byteLength":1116,"byteOffset":40284},{"target":34962,"buffer":0,"byteLength":1152,"byteOffset":41400},{"target":34962,"buffer":0,"byteLength":1152,"byteOffset":42552},{"target":34963,"buffer":0,"byteLength":1152,"byteOffset":43704},{"target":34962,"buffer":0,"byteLength":96,"byteOffset":44856},{"target":34962,"buffer":0,"byteLength":96,"byteOffset":44952},{"target":34963,"buffer":0,"byteLength":72,"byteOffset":45048},{"target":34962,"buffer":0,"byteLength":96,"byteOffset":45120},{"target":34962,"buffer":0,"byteLength":96,"byteOffset":45216},{"target":34963,"buffer":0,"byteLength":72,"byteOffset":45312},{"target":34962,"buffer":0,"byteLength":4272,"byteOffset":45384},{"target":34962,"buffer":0,"byteLength":4272,"byteOffset":49656},{"target":34963,"buffer":0,"byteLength":3960,"byteOffset":53928},{"target":34963,"buffer":0,"byteLength":288,"byteOffset":57888},{"target":34962,"buffer":0,"byteLength":96,"byteOffset":58176},{"target":34962,"buffer":0,"byteLength":96,"byteOffset":58272},{"target":34963,"buffer":0,"byteLength":72,"byteOffset":58368},{"target":34962,"buffer":0,"byteLength":600,"byteOffset":58440},{"target":34962,"buffer":0,"byteLength":600,"byteOffset":59040},{"target":34963,"buffer":0,"byteLength":228,"byteOffset":59640},{"target":34963,"buffer":0,"byteLength":348,"byteOffset":59868},{"target":34962,"buffer":0,"byteLength":96,"byteOffset":60216},{"target":34962,"buffer":0,"byteLength":96,"byteOffset":60312},{"target":34963,"buffer":0,"byteLength":60,"byteOffset":60408},{"target":34963,"buffer":0,"byteLength":12,"byteOffset":60468},{"target":34962,"buffer":0,"byteLength":192,"byteOffset":60480},{"target":34962,"buffer":0,"byteLength":192,"byteOffset":60672},{"target":34963,"buffer":0,"byteLength":48,"byteOffset":60864},{"target":34963,"buffer":0,"byteLength":60,"byteOffset":60912},{"target":34963,"buffer":0,"byteLength":60,"byteOffset":60972}],"buffers":[{"byteLength":61032,"uri":"data:application/octet-stream;base64,"}]}